<!-- Liquid Neon "M" — Variant 2 (primary color: #EB0253) -->
<svg width="260" height="260" viewBox="0 0 300 300" role="img" aria-labelledby="title desc"
     xmlns="http://www.w3.org/2000/svg">
  <title id="title">Liquid Neon M</title>
  <desc id="desc">Gooey, morphing M with two heads, rotating halo, sparkles, and neon glow.</desc>

  <defs>
    <!-- Brand magenta gradient -->
    <linearGradient id="magenta" x1="0" y1="0" x2="1" y2="1">
      <stop offset="0%" stop-color="#FF74B1"/>
      <stop offset="45%" stop-color="#EB0253"/>
      <stop offset="100%" stop-color="#8E0033"/>
    </linearGradient>

    <!-- Subtle animated noise for shimmer -->
    <filter id="grain" x="-20%" y="-20%" width="140%" height="140%">
      <feTurbulence type="fractalNoise" baseFrequency="0.8" numOctaves="1" seed="3" result="n">
        <animate attributeName="seed" values="3;33;3" dur="6s" repeatCount="indefinite"/>
      </feTurbulence>
      <feColorMatrix type="saturate" values="0"/>
      <feComponentTransfer>
        <feFuncA type="table" tableValues="0 0 0 .06 .12 .06 0 0"/>
      </feComponentTransfer>
      <feBlend in="SourceGraphic" in2="n" mode="screen"/>
    </filter>

    <!-- Neon outer glow -->
    <filter id="glow" x="-60%" y="-60%" width="220%" height="220%">
      <feGaussianBlur in="SourceAlpha" stdDeviation="4" result="b"/>
      <feFlood flood-color="#EB0253" flood-opacity=".9"/>
      <feComposite operator="in" in2="b"/>
      <feGaussianBlur stdDeviation="14"/>
      <feMerge>
        <feMergeNode/>
        <feMergeNode in="SourceGraphic"/>
      </feMerge>
    </filter>

    <!-- Gooey merge for blobs & heads -->
    <filter id="goo">
      <feGaussianBlur in="SourceGraphic" stdDeviation="6" result="blur"/>
      <feColorMatrix in="blur" mode="matrix"
        values="1 0 0 0 0
                0 1 0 0 0
                0 0 1 0 0
                0 0 0 20 -10" result="goo"/>
      <feBlend in="SourceGraphic" in2="goo"/>
    </filter>

    <!-- Two "M" shapes to morph between -->
    <path id="M1" d="
      M60,250 L60,110
      Q60,70 95,70 L115,70
      Q135,70 142,95 L150,125 L158,95
      Q165,70 185,70 L205,70
      Q240,70 240,110 L240,250
      L202,250 L202,140 L176,210
      Q168,233 150,233 Q132,233 124,210
      L98,140 L98,250 Z"/>
    <path id="M2" d="
      M60,252 L60,118
      Q60,82 96,78 L118,76
      Q140,74 147,96 L150,108 L153,96
      Q160,74 182,76 L204,78
      Q240,82 240,118 L240,252
      L204,252 L204,146 L178,216
      Q169,240 150,240 Q131,240 122,216
      L96,146 L96,252 Z"/>

    <!-- Spark star -->
    <symbol id="star">
      <path d="M0,-3 L.8,-.8 3,0 .8,.8 0,3 -.8,.8 -3,0 -.8,-.8 Z" fill="#fff"/>
    </symbol>

    <style>
      .center { transform-box: fill-box; transform-origin: center; }
      @keyframes haloSpin { from{transform:rotate(0deg)} to{transform:rotate(360deg)} }
      @keyframes bob      { 0%{transform:translateY(0)} 50%{transform:translateY(-6px)} 100%{transform:translateY(0)} }
      @keyframes pop      { 0%{opacity:0; transform:scale(0)} 20%{opacity:1} 80%{opacity:.9} 100%{opacity:0; transform:scale(1.8)} }
      @keyframes pulse    { 0%{transform:scale(1)} 50%{transform:scale(1.02)} 100%{transform:scale(1)} }
    </style>
  </defs>

  <!-- Rotating dashed halo -->
  <g class="center" transform="translate(150,150)" style="animation:haloSpin 7s linear infinite">
    <circle r="118" fill="none" stroke="#EB0253" stroke-opacity=".45" stroke-width="6" stroke-dasharray="6 14"/>
    <circle r="130" fill="none" stroke="#FF9BCB" stroke-opacity=".25" stroke-width="2" stroke-dasharray="2 10"/>
  </g>

  <!-- Liquid M with morph + glow + grain -->
  <g filter="url(#glow)" class="center" style="animation:pulse 5s ease-in-out infinite">
    <path id="Mblob" fill="url(#magenta)" filter="url(#grain)">
      <animate attributeName="d"
        dur="4.4s" repeatCount="indefinite" calcMode="spline"
        keySplines=".4 0 .2 1;.4 0 .2 1"
        values="
          M60,250 L60,110 Q60,70 95,70 L115,70 Q135,70 142,95 L150,125 L158,95 Q165,70 185,70 L205,70 Q240,70 240,110 L240,250 L202,250 L202,140 L176,210 Q168,233 150,233 Q132,233 124,210 L98,140 L98,250 Z;
          M60,252 L60,118 Q60,82 96,78 L118,76 Q140,74 147,96 L150,108 L153,96 Q160,74 182,76 L204,78 Q240,82 240,118 L240,252 L204,252 L204,146 L178,216 Q169,240 150,240 Q131,240 122,216 L96,146 L96,252 Z;
          M60,250 L60,110 Q60,70 95,70 L115,70 Q135,70 142,95 L150,125 L158,95 Q165,70 185,70 L205,70 Q240,70 240,110 L240,250 L202,250 L202,140 L176,210 Q168,233 150,233 Q132,233 124,210 L98,140 L98,250 Z"/>
    </path>

    <!-- Animated specular sweep clipped to the M -->
    <clipPath id="clipM2"><use href="#Mblob"/></clipPath>
    <g clip-path="url(#clipM2)" opacity=".9">
      <rect x="-420" y="0" width="840" height="300" fill="url(#magenta)">
        <animate attributeName="x" values="-420;420" dur="3.6s" repeatCount="indefinite"/>
      </rect>
      <rect x="-440" y="0" width="880" height="300" fill="white" opacity=".18">
        <animate attributeName="x" values="-440;440" dur="3.6s" begin=".15s" repeatCount="indefinite"/>
      </rect>
    </g>
  </g>

  <!-- Gooey heads + droplets -->
  <g filter="url(#goo)">
    <!-- Left head -->
    <g class="center" transform="translate(118,62)" style="animation:bob 2.2s ease-in-out infinite">
      <circle r="22" fill="#fff"/>
      <circle r="5" cx="3" cy="-1" fill="#1d1d1d"/>
      <!-- tiny droplet merging -->
      <circle r="6" cx="-18" cy="10" fill="#EB0253" opacity=".9">
        <animate attributeName="cy" values="10;16;10" dur="1.4s" repeatCount="indefinite"/>
      </circle>
    </g>

    <!-- Right head -->
    <g class="center" transform="translate(206,62)" style="animation:bob 2s ease-in-out .25s infinite">
      <circle r="22" fill="#fff"/>
      <circle r="5" cx="3" cy="-1" fill="#1d1d1d"/>
      <!-- tiny droplet merging -->
      <circle r="6" cx="18" cy="10" fill="#EB0253" opacity=".9">
        <animate attributeName="cy" values="10;18;10" dur="1.2s" repeatCount="indefinite"/>
      </circle>
    </g>
  </g>

  <!-- Sparkle pops -->
  <g opacity=".95">
    <use href="#star" x="78"  y="120" style="animation:pop 2.2s ease-out .3s infinite"/>
    <use href="#star" x="230" y="96"  style="animation:pop 2.8s ease-out .8s infinite"/>
    <use href="#star" x="200" y="170" style="animation:pop 2.4s ease-out 1.4s infinite"/>
    <use href="#star" x="95"  y="185" style="animation:pop 2.6s ease-out 1.9s infinite"/>
    <use href="#star" x="150" y="60"  style="animation:pop 3.0s ease-out 2.4s infinite"/>
  </g>
</svg>
